HIERARCHY
ROOT Hips
{
	OFFSET 0.000000 0.000000 0.000000
	CHANNELS 6 Xposition Yposition Zposition Xrotation Yrotation Zrotation
	JOINT LeftUpLeg_virtual
	{
		OFFSET 0.000000 0.000000 0.000000
		CHANNELS 3 Xrotation Yrotation Zrotation
		JOINT LeftUpLeg
		{
			OFFSET 13.026900 -6.336304 -1.092800
			CHANNELS 3 Xrotation Yrotation Zrotation
			JOINT LeftLeg
			{
				OFFSET 0.524474 -46.096886 9.782700
				CHANNELS 3 Xrotation Yrotation Zrotation
				JOINT LeftFoot
				{
					OFFSET -0.524474 -53.427422 -12.948200
					CHANNELS 3 Xrotation Yrotation Zrotation
					JOINT LeftToeBase
					{
						OFFSET 0.192200 -14.009700 16.364100
						CHANNELS 3 Xrotation Yrotation Zrotation
						JOINT LeftToe_End
						{
							OFFSET -1.784700 -0.561700 9.474800
							CHANNELS 3 Xrotation Yrotation Zrotation
							End Site
							{
								OFFSET 0 0 0
							}
						}
					}
				}
			}
		}
	}
	JOINT RightUpLeg_virtual
	{
		OFFSET 0.000000 0.000000 0.000000
		CHANNELS 3 Xrotation Yrotation Zrotation
		JOINT RightUpLeg
		{
			OFFSET -12.883000 -6.336304 -1.092800
			CHANNELS 3 Xrotation Yrotation Zrotation
			JOINT RightLeg
			{
				OFFSET -0.524587 -46.096825 9.782800
				CHANNELS 3 Xrotation Yrotation Zrotation
				JOINT RightFoot
				{
					OFFSET 0.524587 -53.427383 -12.948300
					CHANNELS 3 Xrotation Yrotation Zrotation
					JOINT RightToeBase
					{
						OFFSET -0.192200 -14.009700 16.364100
						CHANNELS 3 Xrotation Yrotation Zrotation
						JOINT RightToe_End
						{
							OFFSET 1.784700 -0.561700 9.474800
							CHANNELS 3 Xrotation Yrotation Zrotation
							End Site
							{
								OFFSET 0 0 0
							}
						}
					}
				}
			}
		}
	}
	JOINT Spine_virtual
	{
		OFFSET 0.000000 0.000000 0.000000
		CHANNELS 3 Xrotation Yrotation Zrotation
		JOINT Spine
		{
			OFFSET 0.072000 7.257294 -0.789700
			CHANNELS 3 Xrotation Yrotation Zrotation
			JOINT Spine1
			{
				OFFSET 0.000000 12.508769 -0.658067
				CHANNELS 3 Xrotation Yrotation Zrotation
				JOINT Spine1_split
				{
					OFFSET 0.000000 12.508769 -0.658067
					CHANNELS 3 Xrotation Yrotation Zrotation
					JOINT Spine2
					{
						OFFSET 0.000000 12.508769 -0.658067
						CHANNELS 3 Xrotation Yrotation Zrotation
						JOINT Neck_virtual
						{
							OFFSET 0.000000 0.000000 0.000000
							CHANNELS 3 Xrotation Yrotation Zrotation
							JOINT Neck
							{
								OFFSET 0.000000 14.033295 7.520400
								CHANNELS 3 Xrotation Yrotation Zrotation
								JOINT Head
								{
									OFFSET 0.000000 8.198502 5.703100
									CHANNELS 3 Xrotation Yrotation Zrotation
									JOINT HeadTop_End
									{
										OFFSET 0.000000 17.760803 13.332701
										CHANNELS 3 Xrotation Yrotation Zrotation
										End Site
										{
											OFFSET 0 0 0
										}
									}
								}
							}
						}
						JOINT LeftShoulder_virtual
						{
							OFFSET 0.000000 0.000000 0.000000
							CHANNELS 3 Xrotation Yrotation Zrotation
							JOINT LeftShoulder
							{
								OFFSET 6.292450 5.785301 -0.669000
								CHANNELS 3 Xrotation Yrotation Zrotation
								JOINT LeftShoulder_split
								{
									OFFSET 6.292450 5.785301 -0.669000
									CHANNELS 3 Xrotation Yrotation Zrotation
									JOINT LeftArm
									{
										OFFSET 13.907140 -6.093903 1.965100
										CHANNELS 3 Xrotation Yrotation Zrotation
										JOINT LeftForeArm
										{
											OFFSET 34.140198 0.000000 0.000000
											CHANNELS 3 Xrotation Yrotation Zrotation
											JOINT LeftHand
											{
												OFFSET 40.960209 0.000000 0.000000
												CHANNELS 3 Xrotation Yrotation Zrotation
												End Site
												{
													OFFSET 0 0 0
												}
											}
										}
									}
								}
							}
						}
						JOINT RightShoulder_virtual
						{
							OFFSET 0.000000 0.000000 0.000000
							CHANNELS 3 Xrotation Yrotation Zrotation
							JOINT RightShoulder
							{
								OFFSET -6.292450 5.785301 -0.669000
								CHANNELS 3 Xrotation Yrotation Zrotation
								JOINT RightShoulder_split
								{
									OFFSET -6.292450 5.785301 -0.669000
									CHANNELS 3 Xrotation Yrotation Zrotation
									JOINT RightArm
									{
										OFFSET -13.907140 -6.093903 1.965100
										CHANNELS 3 Xrotation Yrotation Zrotation
										JOINT RightForeArm
										{
											OFFSET -34.140198 0.000000 0.000000
											CHANNELS 3 Xrotation Yrotation Zrotation
											JOINT RightHand
											{
												OFFSET -40.960209 0.000000 0.000000
												CHANNELS 3 Xrotation Yrotation Zrotation
												End Site
												{
													OFFSET 0 0 0
												}
											}
										}
									}
								}
							}
						}
					}
				}
			}
		}
	}
}
MOTION
Frames: 11
Frame Time: 0.03333333
-16.566467 89.246254 -9.379917 0.000000 0.000000 0.000000 -0.814692 -31.069861 7.525692 -28.161633 3.281027 24.240789 43.445638 -12.929368 4.828745 -9.327794 -3.891840 -26.433413 -1.504034 -1.625513 -0.613554 0.000000 0.000000 0.000000 -0.455153 -30.416482 7.810326 -33.507351 -7.438979 -32.928140 58.984530 16.106337 -10.510137 -9.845684 -26.300422 45.453584 2.717598 8.704254 -14.260751 0.000000 0.000000 0.000000 -1.562078 -23.736290 6.182344 4.268438 5.171861 -3.956400 1.146141 -1.423622 -2.117507 0.159066 -0.742361 0.119887 0.000000 0.000000 0.000000 6.536013 0.830134 0.151362 8.280724 18.630657 -2.498009 -18.000233 5.226809 -24.095120 0.000000 0.000000 0.000000 3.433456 -0.801393 -1.563496 2.303073 8.718885 -5.481587 4.731115 -10.170198 3.333743 -77.651458 0.382172 -44.473954 135.755228 -76.087734 132.891302 0.000000 0.000000 0.000000 2.951257 -2.350515 -0.508369 -4.588049 6.344780 -11.636802 -7.846879 -5.238033 0.424946 -57.424515 21.218476 87.096824 -62.848983 74.330886 63.777670 0.000000 0.000000 0.000000 
-18.405527 90.098465 -9.958958 0.000000 0.000000 0.000000 -1.123050 -32.111520 7.553788 -27.265026 1.923326 24.301589 42.872469 -12.345202 4.856275 -6.357397 -3.699719 -26.740845 -3.138319 -1.693691 -1.421575 0.000000 0.000000 0.000000 -0.993245 -30.761171 7.841072 -32.942248 -9.005377 -33.292179 58.911918 15.201672 -9.868643 -12.325326 -26.934405 42.664544 4.626637 8.706125 -14.281269 0.000000 0.000000 0.000000 -2.022343 -24.111990 6.342641 4.178340 4.769397 -3.824293 1.071655 -1.590389 -2.085802 0.150180 -0.668311 0.114338 0.000000 0.000000 0.000000 6.607275 0.633136 0.117067 7.699127 18.513631 -2.780415 -16.604869 6.239709 -24.739749 0.000000 0.000000 0.000000 3.343720 -1.003107 -1.539156 2.281913 8.411888 -5.377311 5.061579 -9.984155 3.369968 -77.259254 0.893965 -44.556179 136.515223 -75.853526 133.227143 0.000000 0.000000 0.000000 2.865182 -2.539978 -0.460843 -4.616170 5.468647 -12.655282 -8.275621 -4.992876 0.665229 -57.172276 20.512812 87.028604 -70.043815 74.742692 70.828249 0.000000 0.000000 0.000000 
-20.177156 91.635010 -10.520023 0.000000 0.000000 0.000000 -1.201921 -32.719803 7.479081 -26.915865 0.768702 23.989684 42.318069 -11.715613 4.981124 -3.118245 -3.949740 -26.787502 -6.045318 -1.718945 -2.202561 0.000000 0.000000 0.000000 -1.489642 -30.908962 7.709617 -32.141593 -10.932921 -33.339608 57.738827 14.502664 -8.996011 -14.035044 -26.697770 39.579877 5.767340 8.772073 -13.910922 0.000000 0.000000 0.000000 -2.075082 -24.195696 6.434696 4.040041 4.495129 -3.541959 1.001606 -1.774879 -2.062457 0.124386 -0.563906 0.104609 0.000000 0.000000 0.000000 6.591201 0.471877 0.076244 6.840391 18.292433 -2.750497 -15.087425 7.228703 -25.491296 0.000000 0.000000 0.000000 3.202189 -1.178426 -1.560492 2.268798 7.631737 -5.418138 5.525515 -9.797898 3.405216 -75.564937 1.488404 -45.031837 136.866841 -75.799322 133.110825 0.000000 0.000000 0.000000 2.663091 -2.660593 -0.383810 -4.720092 4.668518 -13.315502 -8.246264 -4.935345 0.748166 -56.798251 19.243348 87.343517 -79.423612 75.176668 80.114963 0.000000 0.000000 0.000000 
-21.790207 93.463867 -11.069302 0.000000 0.000000 0.000000 -1.175086 -32.931597 7.312395 -27.418871 0.309221 23.326624 42.018443 -11.258949 5.113217 -0.548727 -4.701664 -26.571531 -9.478571 -1.714297 -2.769685 0.000000 0.000000 0.000000 -1.819205 -31.165047 7.429835 -31.311616 -12.635247 -33.125359 55.852711 14.320824 -8.278442 -14.228344 -25.391908 37.761445 5.138511 8.968594 -13.298919 0.000000 0.000000 0.000000 -1.823084 -24.235256 6.462766 3.965292 4.429791 -3.146676 0.959762 -1.885561 -2.068869 0.109339 -0.443574 0.106202 0.000000 0.000000 0.000000 6.512039 0.417542 0.002668 5.836713 17.984484 -2.458924 -13.764461 8.088075 -26.218482 0.000000 0.000000 0.000000 3.009629 -1.263981 -1.667131 2.253730 6.567752 -5.718058 6.023423 -9.673702 3.471982 -72.540222 2.039591 -45.887769 136.704010 -75.805988 132.488950 0.000000 0.000000 0.000000 2.388752 -2.652348 -0.309520 -4.890854 3.954634 -13.432977 -7.762688 -5.214281 0.579097 -55.873082 18.177492 87.799964 -90.333609 75.467464 91.034790 0.000000 0.000000 0.000000 
-23.220993 95.156509 -11.442837 0.000000 0.000000 0.000000 -1.071820 -32.881180 7.117983 -29.109597 0.624261 22.465629 42.521052 -11.377897 5.308349 0.994670 -5.980636 -26.447124 -11.537618 -1.710729 -3.203742 0.000000 0.000000 0.000000 -1.812920 -31.624134 7.124584 -30.188958 -13.953583 -32.481091 53.717293 14.401789 -7.812224 -14.023081 -23.887654 36.446412 4.069291 9.071891 -12.648720 0.000000 0.000000 0.000000 -1.439064 -24.256891 6.419792 4.047983 4.581375 -2.718380 0.927368 -1.881788 -2.082927 0.073873 -0.345775 0.119541 0.000000 0.000000 0.000000 6.361692 0.490548 -0.085807 4.786362 17.653109 -2.037105 -12.799319 8.770863 -26.852023 0.000000 0.000000 0.000000 2.778607 -1.239331 -1.815225 2.229818 5.406184 -6.243345 6.228470 -9.455251 3.603889 -68.338365 2.588803 -46.911665 136.253367 -75.824327 131.710950 0.000000 0.000000 0.000000 2.099288 -2.504075 -0.236004 -5.084466 3.392559 -13.007545 -7.074861 -5.753293 0.211766 -54.197418 17.856964 88.154055 -101.591073 75.539310 102.453835 0.000000 0.000000 0.000000 
-24.544132 96.333878 -11.668400 0.000000 0.000000 0.000000 -0.890537 -32.718013 6.927904 -31.612106 1.847175 21.471538 43.648300 -11.907060 5.390129 1.053261 -7.304408 -26.047883 -11.055436 -1.764227 -3.445515 0.000000 0.000000 0.000000 -1.544748 -32.084506 6.867835 -28.749520 -14.859377 -31.467143 51.721041 14.504093 -7.553798 -14.792436 -22.810257 34.698515 4.182228 8.917083 -12.194446 0.000000 0.000000 0.000000 -1.040029 -24.560979 6.305368 4.294191 4.943075 -2.294207 0.901485 -1.749193 -2.045199 0.047778 -0.274997 0.134100 0.000000 0.000000 0.000000 6.137441 0.682464 -0.133950 3.789751 17.346696 -1.668200 -12.305703 9.319753 -27.370547 0.000000 0.000000 0.000000 2.551104 -1.096099 -1.914882 2.199752 4.414276 -6.840059 6.179791 -9.011501 3.859456 -63.690961 3.174876 -47.916977 135.338518 -75.821862 130.641493 0.000000 0.000000 0.000000 1.863162 -2.224645 -0.142439 -5.241196 3.040962 -12.195230 -6.723273 -6.360273 -0.074977 -51.751479 18.607160 88.176403 -112.458901 75.346706 113.616481 0.000000 0.000000 0.000000 
-25.874517 96.816841 -11.682629 0.000000 0.000000 0.000000 -0.597396 -32.917823 6.742685 -34.406395 3.610630 20.641366 44.793781 -12.491788 5.246615 -0.304591 -8.201255 -25.281448 -8.667423 -1.842177 -3.415432 0.000000 0.000000 0.000000 -1.100973 -32.503958 6.645162 -27.428781 -15.281196 -30.312516 50.790011 14.419019 -7.455986 -16.366412 -22.362912 32.728638 4.370778 8.663602 -11.929596 0.000000 0.000000 0.000000 -0.696826 -25.251203 6.124026 4.591075 5.446797 -1.915026 0.906273 -1.488627 -1.899535 0.051996 -0.221947 0.149816 0.000000 0.000000 0.000000 5.910569 0.975961 -0.078374 2.975712 17.165001 -1.503739 -12.141747 9.823758 -27.829932 0.000000 0.000000 0.000000 2.376730 -0.845756 -1.875593 2.168952 3.829957 -7.415757 5.861337 -8.526374 4.051293 -59.417660 3.909698 -48.791456 133.956730 -75.785634 129.308513 0.000000 0.000000 0.000000 1.723087 -1.863610 0.006107 -5.299169 2.946785 -11.210074 -6.703289 -6.816372 -0.424966 -48.894439 20.227103 87.852707 -122.219992 74.889350 123.756375 0.000000 0.000000 0.000000 
-27.269402 96.674522 -11.622517 0.000000 0.000000 0.000000 -0.225350 -33.673779 6.517720 -36.614045 5.470078 20.055636 45.620896 -12.744345 4.841928 -2.577159 -8.258437 -24.014805 -5.657791 -1.900181 -3.173054 0.000000 0.000000 0.000000 -0.691981 -32.875080 6.421777 -26.506607 -15.300399 -29.237800 51.225702 14.395718 -7.551836 -17.356523 -22.268906 31.768941 3.141608 8.509372 -11.847315 0.000000 0.000000 0.000000 -0.411133 -26.219961 5.819877 4.802610 5.980871 -1.633872 0.950455 -1.167978 -1.643489 0.066102 -0.218409 0.153457 0.000000 0.000000 0.000000 5.750363 1.315610 0.106456 2.390487 17.193468 -1.595984 -11.982917 10.520647 -28.294945 0.000000 0.000000 0.000000 2.280896 -0.551622 -1.665733 2.130063 3.700836 -7.779653 5.505214 -8.110365 4.186164 -56.271313 4.851036 -49.598457 132.159762 -75.776769 127.769849 0.000000 0.000000 0.000000 1.714676 -1.489817 0.214964 -5.200880 3.170864 -10.279226 -7.169573 -6.862589 -0.781795 -46.096609 22.252623 87.274381 -129.798579 74.340988 131.730157 0.000000 0.000000 0.000000 
-28.715048 96.032890 -11.352985 0.000000 0.000000 0.000000 0.111315 -34.740968 6.135227 -37.901956 7.124404 19.781722 46.274088 -12.322648 4.184806 -5.150898 -7.291176 -22.190900 -2.710028 -1.902246 -3.010026 0.000000 0.000000 0.000000 -0.434357 -33.442286 6.087033 -26.166390 -15.011439 -28.381338 52.645780 14.753567 -7.851478 -17.426302 -22.173644 32.290314 1.124559 8.432680 -11.855842 0.000000 0.000000 0.000000 -0.217879 -27.366014 5.384566 4.800117 6.451623 -1.474114 1.005854 -0.872858 -1.314213 0.116817 -0.271806 0.153413 0.000000 0.000000 0.000000 5.729728 1.625043 0.409630 2.044958 17.455291 -1.900630 -11.610976 11.491680 -28.760065 0.000000 0.000000 0.000000 2.270356 -0.294928 -1.303256 2.088335 4.041201 -7.785961 5.259622 -8.000569 4.071066 -54.766868 5.747193 -50.441835 129.543704 -75.848363 125.534424 0.000000 0.000000 0.000000 1.816134 -1.199633 0.443798 -4.953188 3.636032 -9.543319 -7.870291 -6.484953 -0.987532 -43.835181 24.283168 86.740534 -135.278576 73.847138 137.568056 0.000000 0.000000 0.000000 
-30.067150 95.035805 -10.916599 0.000000 0.000000 0.000000 0.301335 -35.873390 5.576976 -38.596651 8.367924 19.898245 47.052009 -11.385783 3.410973 -7.395116 -5.609767 -20.069174 -0.464217 -1.852805 -3.114542 0.000000 0.000000 0.000000 -0.193427 -34.397642 5.612216 -26.064463 -14.653966 -27.610801 54.232013 15.292220 -8.244196 -17.883423 -22.240703 33.044786 0.106117 8.264505 -11.793221 0.000000 0.000000 0.000000 -0.090479 -28.431057 4.906829 4.579193 6.772854 -1.456145 1.005541 -0.708594 -0.971728 0.158358 -0.354997 0.141056 0.000000 0.000000 0.000000 5.826212 1.817336 0.788755 1.889237 17.938790 -2.306304 -10.939380 12.635923 -29.151042 0.000000 0.000000 0.000000 2.312607 -0.134563 -0.841621 2.051685 4.751530 -7.350701 5.054254 -8.079889 3.612659 -54.903301 6.275845 -51.399072 126.626585 -75.892445 123.031747 0.000000 0.000000 0.000000 1.950555 -1.092655 0.650691 -4.623479 4.256110 -8.974760 -8.120462 -5.999887 -1.078932 -42.438240 25.975699 86.613082 -139.292009 73.452046 141.903109 0.000000 0.000000 0.000000 
-31.147696 93.934372 -10.323414 0.000000 0.000000 0.000000 0.372072 -36.864969 4.931759 -38.721650 9.240734 20.370267 48.147506 -10.331247 2.739613 -9.166408 -3.641591 -18.041547 0.777756 -1.785776 -3.326026 0.000000 0.000000 0.000000 0.138253 -35.655452 5.110843 -25.729457 -14.414761 -26.790514 55.387636 15.550722 -8.540335 -19.367471 -22.779589 32.711104 0.931991 7.948731 -11.640224 0.000000 0.000000 0.000000 0.081851 -29.362573 4.454917 4.177857 6.930136 -1.570332 0.914766 -0.691684 -0.668503 0.181378 -0.452933 0.103099 0.000000 0.000000 0.000000 5.951596 1.851949 1.176712 1.791860 18.540156 -2.702667 -10.099627 13.762939 -29.413633 0.000000 0.000000 0.000000 2.397588 -0.076733 -0.369609 2.021832 5.636292 -6.469292 5.019313 -8.386026 3.011904 -56.376887 6.263855 -52.426568 123.564597 -75.895819 120.336978 0.000000 0.000000 0.000000 2.102668 -1.175751 0.796649 -4.267136 4.938589 -8.564393 -8.054180 -5.674944 -1.057918 -41.867506 27.283592 86.892437 -142.260054 73.099881 145.134512 0.000000 0.000000 0.000000 
